<?xml version="1.0" encoding="UTF-8"?>
<svg width="1137px" height="1036px" viewBox="0 0 1137 1036" version="1.1" xmlns="http://www.w3.org/2000/svg" xmlns:xlink="http://www.w3.org/1999/xlink">
    <title>logo-nant-immo</title>
    <g id="logo" stroke="none" stroke-width="1" fill="none" fill-rule="evenodd">
        <path d="M475.764467,30.0463307 L475.764467,255.194057 C475.764467,267.441165 483.198853,278.462228 494.554508,283.049246 L729.945475,378.133392 C745.329471,384.347624 762.838295,376.914062 769.052527,361.530066 C770.496826,357.95455 771.239242,354.134407 771.239242,350.278203 L771.239242,295.130502 C771.239242,278.538817 784.68946,265.088598 801.281145,265.088598 C805.137814,265.088598 808.958409,265.831193 812.53429,267.275831 L1136.18166,398.027709 C1136.3166,398.082226 1136.46078,398.11025 1136.60632,398.11025 L1136.73755,398.11025 C1136.78677,398.11025 1136.82667,398.150152 1136.82667,398.199374 C1136.82667,398.25322 1136.85941,398.301659 1136.90937,398.321745 L1136.93021,398.330127 C1136.98722,398.353048 1137.01486,398.417845 1136.99193,398.474855 C1136.99189,398.474959 1136.99185,398.475063 1136.99181,398.475167 L1136.93021,398.627041 C1136.86183,398.795643 1136.82667,398.975869 1136.82667,399.15781 L1136.82667,1005.9581 C1136.82667,1022.54978 1123.37646,1036 1106.78477,1036 L615.983405,1036 C599.39172,1036 585.941502,1022.54978 585.941502,1005.9581 L585.941502,399.632218 C585.941502,387.385111 578.507118,376.36405 567.151465,371.77703 L517.058237,351.542297 C501.674242,345.328062 484.165417,352.761622 477.951183,368.145618 C476.506884,371.721134 475.764467,375.541278 475.764467,379.397484 L475.764467,1005.9581 C475.764467,1022.54978 462.314249,1036 445.722564,1036 L30.0419035,1036 C13.4502183,1036 7.10542736e-15,1022.54978 7.10542736e-15,1005.9581 L6.75015599e-14,625.625153 C1.10134124e-13,613.397767 7.41078187,602.390324 18.7398831,597.790277 L166.557857,537.770546 C177.886958,533.170499 185.29774,522.163056 185.29774,509.93567 L185.29774,122.974192 C185.29774,110.721635 192.738653,99.6968126 204.101644,95.1134069 L434.484564,2.18554589 C449.871651,-4.02102985 467.376773,3.42124465 473.583349,18.8083312 C475.023986,22.379901 475.764467,26.1951559 475.764467,30.0463307 Z M144.003886,606.18566 L73.8784707,634.512471 C62.5228616,639.099512 55.0885173,650.120551 55.0885173,662.367624 L55.0885173,950.881274 C55.0885173,967.472959 68.5387356,980.923177 85.1304207,980.923177 L155.255836,980.923177 C171.847522,980.923177 185.29774,967.472959 185.29774,950.881274 L185.29774,634.040813 C185.29774,617.449128 171.847522,603.99891 155.255836,603.99891 C151.3996,603.99891 147.579427,604.741338 144.003886,606.18566 Z M379.37605,83.1930249 L259.170164,131.779945 C247.817755,136.368561 240.386257,147.387959 240.386257,159.632655 L240.386257,950.881274 C240.386257,967.472959 253.836475,980.923177 270.428161,980.923177 L390.634046,980.923177 C407.225732,980.923177 420.67595,967.472959 420.67595,950.881274 L420.67595,111.045735 C420.67595,94.4540503 407.225732,81.003832 390.634046,81.003832 C386.775617,81.003832 382.953311,81.7471049 379.37605,83.1930249 Z M641.030019,446.154426 L641.030019,950.881274 C641.030019,967.472959 654.480237,980.923177 671.071922,980.923177 L741.197338,980.923177 C757.789023,980.923177 771.239242,967.472959 771.239242,950.881274 L771.239242,474.480698 C771.239242,462.233552 763.804811,451.212463 752.449104,446.62547 L682.323688,418.299198 C666.939671,412.085019 649.430873,419.518642 643.216694,434.90266 C641.772421,438.478148 641.030019,442.298257 641.030019,446.154426 Z M826.327759,521.003701 L826.327759,950.881274 C826.327759,967.472959 839.777977,980.923177 856.369662,980.923177 L896.446796,980.923177 C913.038481,980.923177 926.488699,967.472959 926.488699,950.881274 L926.488699,537.192228 C926.488699,524.945053 919.054234,513.923944 907.698488,509.33697 L867.621354,493.148444 C852.23732,486.934306 834.728543,494.367975 828.514404,509.752009 C827.070151,513.327476 826.327759,517.147559 826.327759,521.003701 Z M981.577217,583.715173 L981.577217,950.881274 C981.577217,967.472959 995.027435,980.923177 1011.61912,980.923177 L1051.69625,980.923177 C1068.28794,980.923177 1081.73816,967.472959 1081.73816,950.881274 L1081.73816,599.9037 C1081.73816,587.656525 1074.30369,576.635416 1062.94795,572.048442 L1022.87081,555.859916 C1007.48678,549.645778 989.978,557.079447 983.763862,572.463481 C982.319609,576.038948 981.577217,579.859031 981.577217,583.715173 Z M981.577217,436.962442 L981.577217,459.512101 C981.577217,471.759182 989.011569,482.780226 1000.36719,487.367262 L1042.32589,504.316238 C1057.00889,510.247353 1073.71994,503.152544 1079.65105,488.46954 C1081.02956,485.056925 1081.73816,481.410825 1081.73816,477.730307 L1081.73816,455.373809 C1081.73816,443.184559 1074.37292,432.203511 1063.0952,427.578485 L1021.19019,410.393117 C1006.51635,404.375336 989.742485,411.392451 983.724703,426.066284 C982.306684,429.523999 981.577217,433.225255 981.577217,436.962442 Z M826.327759,373.772302 L826.327759,396.800629 C826.327759,409.04771 833.762112,420.068754 845.117731,424.65579 L886.632606,441.425485 C901.480957,447.423391 918.380188,440.248687 924.378093,425.400336 C925.772123,421.949291 926.488699,418.262132 926.488699,414.540167 L926.488699,391.705002 C926.488699,379.515752 919.123459,368.534703 907.84574,363.909678 L866.3836,346.905933 C851.545714,340.820873 834.584315,347.91644 828.499255,362.754326 C827.065382,366.250698 826.327759,369.993333 826.327759,373.772302 Z" id="logo-nant-immo" fill="#FFFFFF"></path>
    </g>
</svg>